<svg width="50" height="48" viewBox="0 0 50 48" fill="none" xmlns="http://www.w3.org/2000/svg">
<path d="M9.82142 0C8.83221 0 7.92353 0.545214 7.458 1.41807L0.315143 14.8109C-0.183264 15.7454 -0.0842286 16.8859 0.567821 17.7205L22.8892 46.2918C23.3968 46.9418 24.1755 47.3214 25 47.3214C25.8246 47.3214 26.6032 46.9418 27.1108 46.2918L49.4321 17.7205C50.0843 16.8859 50.1832 15.7454 49.685 14.8109L42.5421 1.41807C42.0764 0.545214 41.1678 0 40.1786 0H9.82142ZM6.66667 14.2857L11.4286 5.35714H15.9887L13.7565 14.2857H6.66667ZM8.86785 19.6429H14.3809L18.0562 31.4039L8.86785 19.6429ZM19.9935 19.6429H30.0063L24.9999 35.6632L19.9935 19.6429ZM35.6189 19.6429H41.1321L31.9435 31.4043L35.6189 19.6429ZM43.3332 14.2857H36.2432L34.0111 5.35714H38.5714L43.3332 14.2857ZM30.7213 14.2857H19.2785L21.5107 5.35714H28.4891L30.7213 14.2857Z" fill="white"/>
</svg>
