<svg width="64" height="64" viewBox="0 0 64 64" fill="none" xmlns="http://www.w3.org/2000/svg">
<path d="M16.96 50.08L17.6267 56L21.9467 51.8933L29.3333 31.6266C27.52 31.1733 25.92 30.2666 24.6133 29.0133L16.96 50.08Z" fill="white"/>
<path d="M39.3867 29.0133C38.08 30.2666 36.4533 31.1733 34.6667 31.6266L42.0533 51.8933L46.3733 56L47.0667 50.08L39.3867 29.0133Z" fill="white"/>
<path d="M40 21.3333C40 17.8667 37.76 14.9333 34.6667 13.8133V8H29.3333V13.8133C26.24 14.9333 24 17.8667 24 21.3333C24 25.76 27.5733 29.3333 32 29.3333C36.4267 29.3333 40 25.76 40 21.3333ZM32 24C30.5333 24 29.3333 22.8 29.3333 21.3333C29.3333 19.8667 30.5333 18.6667 32 18.6667C33.4667 18.6667 34.6667 19.8667 34.6667 21.3333C34.6667 22.8 33.4667 24 32 24Z" fill="white"/>
</svg>
