<svg width="51" height="53" viewBox="0 0 51 53" fill="none" xmlns="http://www.w3.org/2000/svg">
<path d="M46.75 52.3859H46.7495L33.9979 52.3843C32.8712 52.3828 31.7911 51.9346 30.9945 51.1378C30.1979 50.3411 29.7497 49.2609 29.7484 48.1343V35.384H21.2484V48.1343C21.2471 49.2609 20.799 50.3411 20.0024 51.1378C19.2058 51.9346 18.1256 52.3828 16.999 52.3843L4.25053 52.3859C3.69237 52.386 3.13966 52.2761 2.62396 52.0626C2.10826 51.849 1.63969 51.536 1.24498 51.1413C0.850274 50.7467 0.537173 50.2781 0.323558 49.7625C0.109943 49.2468 -2.09772e-06 48.6941 0 48.1359V23.5761C0.000516571 22.9841 0.124501 22.3986 0.364036 21.8571C0.603571 21.3157 0.953392 20.8301 1.39116 20.4314L22.6393 1.11151C23.4198 0.396632 24.4398 7.17951e-05 25.4982 9.74763e-09C26.5566 -7.17756e-05 27.5767 0.39635 28.3573 1.11112L49.6091 20.4316C50.0468 20.8303 50.3965 21.3159 50.636 21.8573C50.8755 22.3988 50.9994 22.9842 51 23.5763V48.136C51 48.6941 50.8901 49.2467 50.6765 49.7624C50.4629 50.278 50.1499 50.7465 49.7552 51.1412C49.3606 51.5358 48.892 51.8489 48.3764 52.0625C47.8608 52.276 47.3081 52.386 46.75 52.386V52.3859ZM21.2484 31.134H29.7484C30.8752 31.1353 31.9555 31.5835 32.7522 32.3802C33.549 33.177 33.9972 34.2572 33.9984 35.384V48.137L46.75 48.1359V23.5763L25.4984 4.25595L4.25 23.5761V48.1359L16.9984 48.1343V35.384C16.9997 34.2572 17.4479 33.177 18.2447 32.3802C19.0414 31.5835 20.1217 31.1353 21.2484 31.134V31.134Z" fill="white"/>
</svg>
