<svg width="53" height="53" viewBox="0 0 53 53" fill="none" xmlns="http://www.w3.org/2000/svg">
<path d="M30.2888 33.3417L34.9506 28.68L48.1279 41.8572L43.4661 46.519L30.2888 33.3417Z" fill="white"/>
<path d="M38.458 21.9761C42.6994 21.9761 46.1496 18.5259 46.1496 14.2845C46.1496 13.0099 45.798 11.8232 45.2486 10.7683L39.3151 16.7019L36.0407 13.4274L41.9742 7.49392C40.9193 6.94452 39.7326 6.5929 38.458 6.5929C34.2167 6.5929 30.7664 10.0431 30.7664 14.2845C30.7664 15.1855 30.9422 16.0426 31.2279 16.8337L27.1624 20.8993L23.2506 16.9876L24.8109 15.4273L21.7123 12.3286L26.3712 7.66973C23.8 5.09853 19.6246 5.09853 17.0534 7.66973L9.27388 15.4492L12.3725 18.5479H6.17526L4.61496 20.1082L12.3945 27.8877L13.9548 26.3274V20.1082L17.0534 23.2068L18.6137 21.6465L22.5254 25.5582L6.24119 41.8424L10.9001 46.5014L35.9088 21.5146C36.6999 21.8003 37.557 21.9761 38.458 21.9761V21.9761Z" fill="white"/>
</svg>
