<svg width="271" height="279" viewBox="0 0 271 279" fill="none" xmlns="http://www.w3.org/2000/svg">
<mask id="mask0_1_130" style="mask-type:alpha" maskUnits="userSpaceOnUse" x="-8" y="0" width="279" height="279">
<rect x="-8" width="279" height="279" fill="#D9D9D9" fill-opacity="0.03"/>
</mask>
<g mask="url(#mask0_1_130)">
<line x1="10.1414" y1="-110.086" x2="440.323" y2="77.2292" stroke="#FF2C3A" stroke-width="8"/>
<line x1="0.554371" y1="-88.0692" x2="430.736" y2="99.2463" stroke="#FF2C3A" stroke-width="8"/>
<line x1="-9.77009" y1="-64.3583" x2="420.411" y2="122.957" stroke="#FF2C3A" stroke-width="8"/>
<line x1="-20.0946" y1="-40.6475" x2="410.087" y2="146.668" stroke="#FF2C3A" stroke-width="8"/>
<line x1="-30.4191" y1="-16.9367" x2="399.762" y2="170.379" stroke="#FF2C3A" stroke-width="8"/>
<line x1="-40.0061" y1="5.08046" x2="390.175" y2="192.396" stroke="#FF2C3A" stroke-width="8"/>
<line x1="-50.3305" y1="28.7911" x2="379.851" y2="216.107" stroke="#FF2C3A" stroke-width="8"/>
<line x1="-60.655" y1="52.5019" x2="369.526" y2="239.817" stroke="#FF2C3A" stroke-width="8"/>
<line x1="-70.9795" y1="76.2127" x2="359.202" y2="263.528" stroke="#FF2C3A" stroke-width="8"/>
<line x1="-80.5665" y1="98.2298" x2="349.615" y2="285.545" stroke="#FF2C3A" stroke-width="8"/>
<line x1="-90.891" y1="121.941" x2="339.29" y2="309.256" stroke="#FF2C3A" stroke-width="8"/>
<line x1="-101.215" y1="145.651" x2="328.966" y2="332.967" stroke="#FF2C3A" stroke-width="8"/>
<line x1="-111.54" y1="169.362" x2="318.641" y2="356.678" stroke="#FF2C3A" stroke-width="8"/>
<line x1="-121.127" y1="191.379" x2="309.054" y2="378.695" stroke="#FF2C3A" stroke-width="8"/>
<line x1="-131.451" y1="215.09" x2="298.73" y2="402.405" stroke="#FF2C3A" stroke-width="8"/>
<line x1="-141.776" y1="238.801" x2="288.405" y2="426.116" stroke="#FF2C3A" stroke-width="8"/>
</g>
</svg>
