<svg width="15" height="15" viewBox="0 0 15 15" fill="none" xmlns="http://www.w3.org/2000/svg">
<path d="M4.81935 7.20912C4.26579 6.50812 3.93649 5.66232 3.86855 5.59047C4.67929 5.09591 6.26493 4.47442 6.35372 3.58267C6.46668 2.43051 4.23578 0.0218834 3.8081 0C2.63763 0.0109417 0.495509 1.74411 0.241656 2.26785C-0.230202 3.35071 0.00364307 4.35844 0.814806 5.81733C1.84773 7.98743 5.68428 12.1041 7.87892 13.3963C9.33118 14.3715 10.392 14.7545 11.6588 14.5233C12.2478 14.4255 14.3749 12.8984 14.5879 11.8659C14.64 11.4829 12.1673 8.9441 10.8885 8.84344C9.89558 8.7632 8.94352 10.0638 8.26116 10.6995C8.19322 10.6237 7.61131 10.2265 6.98689 9.59769C6.17406 8.85037 5.41876 7.97248 4.81935 7.20912Z" fill="black"/>
</svg>
