<svg width="15" height="15" viewBox="0 0 15 15" fill="none" xmlns="http://www.w3.org/2000/svg">
<path d="M14.0521 7.06958C14.0521 3.16408 10.9049 0 7.02606 0C3.1446 0 0 3.16408 0 7.06958C0 10.5973 2.56846 13.5223 5.92824 14.0521V9.11357H4.14406V7.07002H5.92824V5.51162C5.92824 3.74025 6.97556 2.762 8.58101 2.762C9.34993 2.762 10.1548 2.89985 10.1548 2.89985V4.63941H9.26737C8.39614 4.63941 8.12388 5.1851 8.12388 5.74403V7.06958H10.0723L9.75919 9.11313H8.12388V14.0517C11.481 13.5219 14.0521 10.5969 14.0521 7.06914V7.06958Z" fill="black"/>
</svg>
