<svg width="15" height="15" viewBox="0 0 15 15" fill="none" xmlns="http://www.w3.org/2000/svg">
<path d="M10.8268 4.86774C10.7658 4.70984 10.6725 4.56645 10.5527 4.44683C10.433 4.3272 10.2895 4.23399 10.1315 4.17318C9.91401 4.09262 9.68427 4.05004 9.45233 4.0473C9.06663 4.02974 8.951 4.02534 7.97394 4.02534C6.99687 4.02534 6.88124 4.02974 6.49554 4.0473C6.26335 4.04996 6.03336 4.09254 5.81562 4.17318C5.65771 4.23415 5.51433 4.32752 5.39471 4.44727C5.27508 4.56702 5.18187 4.7105 5.12106 4.86847C5.0405 5.08598 4.99792 5.31572 4.99518 5.54766C4.97762 5.93336 4.97322 6.049 4.97322 7.02606C4.97322 8.00312 4.97762 8.11875 4.99518 8.50446C4.99784 8.73664 5.04042 8.96663 5.12106 9.18437C5.18203 9.34228 5.2754 9.48566 5.39515 9.60528C5.5149 9.72491 5.65838 9.81813 5.81635 9.87893C6.03386 9.95949 6.2636 10.0021 6.49554 10.0048C6.88124 10.0224 6.99687 10.026 7.97394 10.026C8.951 10.026 9.06663 10.0224 9.45233 10.0041C9.68447 10.0017 9.91447 9.95932 10.1323 9.87893C10.2902 9.81796 10.4335 9.72459 10.5532 9.60484C10.6728 9.48509 10.766 9.34161 10.8268 9.18364C10.9074 8.96613 10.9499 8.73639 10.9527 8.50446C10.9703 8.11875 10.9739 8.00312 10.9739 7.02606C10.9739 6.049 10.9703 5.93336 10.952 5.54766C10.9495 5.31552 10.9072 5.08553 10.8268 4.86774ZM7.97394 8.90553C7.60221 8.90553 7.23884 8.7953 6.92976 8.58878C6.62068 8.38226 6.37978 8.08873 6.23753 7.7453C6.09528 7.40187 6.05806 7.02397 6.13058 6.65939C6.2031 6.29481 6.3821 5.95992 6.64495 5.69707C6.9078 5.43422 7.24269 5.25522 7.60727 5.1827C7.97185 5.11018 8.34975 5.1474 8.69318 5.28965C9.03661 5.4319 9.33014 5.6728 9.53666 5.98188C9.74318 6.29096 9.85341 6.65433 9.85341 7.02606C9.85341 7.52452 9.65539 8.00257 9.30292 8.35504C8.95045 8.70751 8.4724 8.90553 7.97394 8.90553ZM9.92733 5.51179C9.84047 5.51179 9.75557 5.48604 9.68336 5.43779C9.61114 5.38954 9.55486 5.32095 9.52162 5.24071C9.48839 5.16047 9.47969 5.07218 9.49663 4.987C9.51358 4.90181 9.5554 4.82357 9.61681 4.76216C9.67823 4.70074 9.75647 4.65892 9.84166 4.64198C9.92684 4.62503 10.0151 4.63373 10.0954 4.66696C10.1756 4.7002 10.2442 4.75648 10.2924 4.8287C10.3407 4.90091 10.3665 4.98582 10.3665 5.07267C10.3665 5.18913 10.3202 5.30082 10.2378 5.38318C10.1555 5.46553 10.0438 5.51179 9.92733 5.51179ZM9.19398 7.02606C9.19398 7.26736 9.12243 7.50324 8.98837 7.70388C8.85431 7.90451 8.66376 8.06089 8.44083 8.15323C8.21789 8.24557 7.97258 8.26973 7.73592 8.22266C7.49925 8.17558 7.28186 8.05938 7.11123 7.88876C6.94061 7.71813 6.82441 7.50074 6.77733 7.26408C6.73026 7.02741 6.75442 6.7821 6.84676 6.55917C6.9391 6.33623 7.09548 6.14569 7.29611 6.01163C7.49675 5.87757 7.73263 5.80601 7.97394 5.80601C8.29751 5.80601 8.60783 5.93455 8.83664 6.16335C9.06544 6.39216 9.19398 6.70248 9.19398 7.02606ZM7.97394 0C6.58431 0 5.2259 0.412071 4.07047 1.1841C2.91504 1.95614 2.01449 3.05346 1.48271 4.3373C0.95092 5.62114 0.811781 7.03385 1.08288 8.39677C1.35398 9.75969 2.02315 11.0116 3.00576 11.9942C3.98837 12.9768 5.2403 13.646 6.60322 13.9171C7.96614 14.1882 9.37885 14.0491 10.6627 13.5173C11.9465 12.9855 13.0439 12.085 13.8159 10.9295C14.5879 9.77409 15 8.41568 15 7.02606C15 5.16263 14.2597 3.37553 12.9421 2.05788C11.6245 0.740243 9.83736 0 7.97394 0V0ZM11.6114 8.53446C11.6052 8.83814 11.5475 9.13857 11.4409 9.42297C11.3469 9.66601 11.2031 9.88673 11.0189 10.071C10.8346 10.2553 10.6139 10.399 10.3708 10.493C10.0867 10.5996 9.78651 10.6572 9.48307 10.6635C9.09225 10.6811 8.96783 10.6855 7.97394 10.6855C6.98004 10.6855 6.85562 10.6811 6.4648 10.6635C6.16136 10.6572 5.86119 10.5996 5.57703 10.493C5.33398 10.399 5.11326 10.2553 4.929 10.071C4.74474 9.88673 4.60101 9.66601 4.50702 9.42297C4.40043 9.1388 4.34277 8.83863 4.33649 8.53519C4.31892 8.14437 4.31453 8.01995 4.31453 7.02606C4.31453 6.03216 4.31892 5.90774 4.33649 5.51692C4.34253 5.21353 4.39994 4.91335 4.50628 4.62915C4.60027 4.3859 4.74408 4.16499 4.92847 3.98059C5.11287 3.7962 5.33378 3.65239 5.57703 3.5584C5.86123 3.45206 6.16141 3.39465 6.4648 3.38861C6.85562 3.37104 6.98004 3.36665 7.97394 3.36665C8.96783 3.36665 9.09225 3.37104 9.48307 3.38861C9.78646 3.39465 10.0866 3.45206 10.3708 3.5584C10.614 3.65248 10.8347 3.79632 11.019 3.98071C11.2033 4.1651 11.3469 4.38597 11.4409 4.62915C11.5474 4.91331 11.6051 5.21349 11.6114 5.51692C11.6289 5.90774 11.6333 6.03216 11.6333 7.02606C11.6333 8.01995 11.6289 8.14437 11.6114 8.53519V8.53446Z" fill="black"/>
</svg>
