<svg width="15" height="15" viewBox="0 0 15 15" fill="none" xmlns="http://www.w3.org/2000/svg">
<path d="M7.34204 0C3.4616 0 0.315979 3.14562 0.315979 7.02606C0.315979 10.9065 3.4616 14.0521 7.34204 14.0521C11.2225 14.0521 14.3681 10.9065 14.3681 7.02606C14.3681 3.14562 11.2225 0 7.34204 0ZM5.62212 9.93821H4.19934V5.35956H5.62212V9.93821ZM4.90195 4.79748C4.45257 4.79748 4.16201 4.47911 4.16201 4.08536C4.16201 3.68356 4.46135 3.3747 4.92024 3.3747C5.37913 3.3747 5.66017 3.68356 5.66896 4.08536C5.66896 4.47911 5.37913 4.79748 4.90195 4.79748ZM10.8185 9.93821H9.39569V7.40078C9.39569 6.81015 9.1893 6.40908 8.67479 6.40908C8.28177 6.40908 8.0483 6.68061 7.94511 6.94189C7.90705 7.03484 7.89753 7.16658 7.89753 7.29759V9.93748H6.47403V6.81967C6.47403 6.24807 6.45573 5.77015 6.4367 5.35883H7.67285L7.73798 5.99484H7.76653C7.95389 5.69623 8.41278 5.25564 9.18052 5.25564C10.1166 5.25564 10.8185 5.88286 10.8185 7.23098V9.93821Z" fill="black"/>
</svg>
