<svg width="15" height="15" viewBox="0 0 15 15" fill="none" xmlns="http://www.w3.org/2000/svg">
<path d="M7.65802 0C3.778 0 0.631958 3.14604 0.631958 7.02606C0.631958 10.9061 3.778 14.0521 7.65802 14.0521C11.538 14.0521 14.6841 10.9061 14.6841 7.02606C14.6841 3.14604 11.538 0 7.65802 0ZM11.0346 5.29621C11.0393 5.36992 11.0393 5.44676 11.0393 5.52204C11.0393 7.82433 9.28593 10.4764 6.08186 10.4764C5.09382 10.4764 4.17792 10.1894 3.40631 9.69533C3.54746 9.71102 3.68233 9.71729 3.82662 9.71729C4.64214 9.71729 5.3918 9.44127 5.98933 8.97391C5.22399 8.95822 4.58098 8.45636 4.36141 7.7663C4.6296 7.80551 4.87112 7.80551 5.14714 7.73494C4.75306 7.65487 4.39886 7.44085 4.1447 7.12923C3.89054 6.8176 3.7521 6.4276 3.75291 6.02547V6.00352C3.98345 6.13369 4.25477 6.21367 4.53863 6.22465C4.3 6.06561 4.1043 5.85015 3.96888 5.59737C3.83346 5.34459 3.76251 5.06229 3.76232 4.77552C3.76232 4.45088 3.84701 4.15447 3.99913 3.89727C4.43654 4.43573 4.98236 4.87612 5.60111 5.18982C6.21987 5.50352 6.89771 5.68351 7.59058 5.71808C7.34435 4.534 8.22888 3.57576 9.2922 3.57576C9.79406 3.57576 10.2457 3.78592 10.5641 4.12467C10.9578 4.05096 11.3341 3.90354 11.6698 3.70593C11.5396 4.10899 11.2667 4.44931 10.9044 4.66417C11.2557 4.62653 11.5945 4.5293 11.9082 4.39285C11.6713 4.74102 11.3749 5.04998 11.0346 5.29621Z" fill="black"/>
</svg>
