<svg width="30" height="30" viewBox="0 0 30 30" fill="none" xmlns="http://www.w3.org/2000/svg">
<path d="M17.0415 23.412C16.8574 23.4127 16.6755 23.372 16.5092 23.2931C16.3429 23.2142 16.1963 23.0991 16.0804 22.9561L10.1288 15.5628C9.94756 15.3424 9.84848 15.0658 9.84848 14.7804C9.84848 14.495 9.94756 14.2184 10.1288 13.9979L16.2898 6.60467C16.499 6.35303 16.7996 6.19479 17.1254 6.16474C17.4512 6.1347 17.7756 6.23533 18.0273 6.44448C18.2789 6.65364 18.4371 6.95419 18.4672 7.28002C18.4972 7.60584 18.3966 7.93026 18.1875 8.1819L12.6795 14.7866L18.0026 21.3912C18.1533 21.5721 18.249 21.7923 18.2784 22.0259C18.3079 22.2594 18.2698 22.4966 18.1687 22.7091C18.0675 22.9217 17.9077 23.1009 17.7079 23.2255C17.5081 23.35 17.2769 23.4148 17.0415 23.412Z" fill="white"/>
</svg>
