<svg width="30" height="30" viewBox="0 0 30 30" fill="none" xmlns="http://www.w3.org/2000/svg">
<path d="M12.3221 23.4119C12.0342 23.4125 11.7552 23.3122 11.5335 23.1285C11.4087 23.0251 11.3056 22.898 11.23 22.7547C11.1544 22.6113 11.1078 22.4544 11.0929 22.293C11.078 22.1316 11.0951 21.9689 11.1433 21.8141C11.1914 21.6594 11.2695 21.5156 11.3733 21.3911L16.8936 14.7864L11.5704 8.16947C11.4681 8.04343 11.3917 7.8984 11.3455 7.74273C11.2994 7.58705 11.2845 7.42379 11.3017 7.26234C11.3189 7.10088 11.3678 6.94441 11.4456 6.80193C11.5235 6.65944 11.6287 6.53374 11.7553 6.43205C11.8828 6.31988 12.0321 6.23526 12.1938 6.18352C12.3556 6.13178 12.5262 6.11404 12.6952 6.13139C12.8641 6.14875 13.0276 6.20083 13.1755 6.28438C13.3233 6.36792 13.4523 6.48113 13.5543 6.61688L19.5059 14.0102C19.6871 14.2306 19.7862 14.5072 19.7862 14.7926C19.7862 15.078 19.6871 15.3546 19.5059 15.5751L13.3448 22.9683C13.2212 23.1174 13.0642 23.2353 12.8865 23.3124C12.7088 23.3895 12.5154 23.4236 12.3221 23.4119Z" fill="white"/>
</svg>
