<svg width="30" height="30" viewBox="0 0 30 30" fill="none" xmlns="http://www.w3.org/2000/svg">
<path d="M16.8894 23.2031C16.707 23.2037 16.5267 23.1634 16.3619 23.0853C16.1971 23.0071 16.0518 22.8929 15.9369 22.7512L10.0384 15.424C9.85881 15.2054 9.76062 14.9313 9.76062 14.6485C9.76062 14.3656 9.85881 14.0915 10.0384 13.873L16.1445 6.54572C16.3518 6.29633 16.6497 6.13949 16.9726 6.10972C17.2955 6.07995 17.617 6.17967 17.8664 6.38696C18.1158 6.59425 18.2726 6.89212 18.3024 7.21504C18.3322 7.53796 18.2325 7.85948 18.0252 8.10888L12.5663 14.6546L17.842 21.2003C17.9913 21.3796 18.0862 21.5978 18.1154 21.8293C18.1445 22.0608 18.1068 22.2958 18.0066 22.5065C17.9063 22.7172 17.7479 22.8948 17.5499 23.0182C17.3519 23.1417 17.1227 23.2058 16.8894 23.2031Z" fill="#5C5C5C"/>
</svg>
