<svg width="30" height="30" viewBox="0 0 30 30" fill="none" xmlns="http://www.w3.org/2000/svg">
<path d="M12.903 23.203C12.6176 23.2035 12.3411 23.1041 12.1214 22.9221C11.9977 22.8196 11.8955 22.6937 11.8206 22.5516C11.7457 22.4095 11.6995 22.254 11.6848 22.0941C11.67 21.9341 11.687 21.7728 11.7347 21.6194C11.7823 21.4661 11.8598 21.3236 11.9626 21.2002L17.4337 14.6545L12.158 8.09654C12.0566 7.97162 11.9808 7.82789 11.9351 7.6736C11.8894 7.51931 11.8746 7.35751 11.8917 7.1975C11.9087 7.03749 11.9572 6.88241 12.0343 6.7412C12.1115 6.59998 12.2158 6.4754 12.3412 6.37462C12.4676 6.26345 12.6155 6.17959 12.7758 6.12831C12.9361 6.07704 13.1053 6.05945 13.2727 6.07665C13.4401 6.09385 13.6022 6.14547 13.7487 6.22827C13.8953 6.31107 14.0231 6.42326 14.1242 6.55781L20.0227 13.8851C20.2023 14.1036 20.3005 14.3777 20.3005 14.6606C20.3005 14.9434 20.2023 15.2175 20.0227 15.436L13.9166 22.7633C13.7941 22.9111 13.6385 23.0279 13.4623 23.1043C13.2862 23.1807 13.0946 23.2145 12.903 23.203Z" fill="#FF2C3A"/>
</svg>
