<svg width="152" height="152" viewBox="0 0 152 152" fill="none" xmlns="http://www.w3.org/2000/svg">
<mask id="mask0_1_67" style="mask-type:alpha" maskUnits="userSpaceOnUse" x="0" y="0" width="152" height="152">
<rect width="152" height="152" fill="#D9D9D9"/>
</mask>
<g mask="url(#mask0_1_67)">
<line x1="10.6104" y1="-61.6447" x2="244.974" y2="40.4053" stroke="#D6D6D6" stroke-opacity="0.1" stroke-width="8"/>
<line x1="5.38738" y1="-49.6497" x2="239.751" y2="52.4003" stroke="#D6D6D6" stroke-opacity="0.1" stroke-width="8"/>
<line x1="-0.237438" y1="-36.732" x2="234.127" y2="65.318" stroke="#D6D6D6" stroke-opacity="0.1" stroke-width="8"/>
<line x1="-5.86225" y1="-23.8143" x2="228.502" y2="78.2357" stroke="#D6D6D6" stroke-opacity="0.1" stroke-width="8"/>
<line x1="-11.4871" y1="-10.8965" x2="222.877" y2="91.1535" stroke="#D6D6D6" stroke-opacity="0.1" stroke-width="8"/>
<line x1="-16.7101" y1="1.09846" x2="217.654" y2="103.148" stroke="#D6D6D6" stroke-opacity="0.1" stroke-width="8"/>
<line x1="-22.3349" y1="14.0161" x2="212.029" y2="116.066" stroke="#D6D6D6" stroke-opacity="0.1" stroke-width="8"/>
<line x1="-27.9597" y1="26.9338" x2="206.404" y2="128.984" stroke="#D6D6D6" stroke-opacity="0.1" stroke-width="8"/>
<line x1="-33.5845" y1="39.8515" x2="200.779" y2="141.902" stroke="#D6D6D6" stroke-opacity="0.1" stroke-width="8"/>
<line x1="-38.8075" y1="51.8465" x2="195.556" y2="153.897" stroke="#D6D6D6" stroke-opacity="0.1" stroke-width="8"/>
<line x1="-44.4323" y1="64.7642" x2="189.932" y2="166.814" stroke="#D6D6D6" stroke-opacity="0.1" stroke-width="8"/>
<line x1="-50.0571" y1="77.682" x2="184.307" y2="179.732" stroke="#D6D6D6" stroke-opacity="0.1" stroke-width="8"/>
<line x1="-55.682" y1="90.5997" x2="178.682" y2="192.65" stroke="#D6D6D6" stroke-opacity="0.1" stroke-width="8"/>
<line x1="-60.905" y1="102.595" x2="173.459" y2="204.645" stroke="#D6D6D6" stroke-opacity="0.1" stroke-width="8"/>
<line x1="-66.5298" y1="115.512" x2="167.834" y2="217.562" stroke="#D6D6D6" stroke-opacity="0.1" stroke-width="8"/>
<line x1="-72.1546" y1="128.43" x2="162.209" y2="230.48" stroke="#D6D6D6" stroke-opacity="0.1" stroke-width="8"/>
</g>
</svg>
