<svg width="15" height="15" viewBox="0 0 15 15" fill="none" xmlns="http://www.w3.org/2000/svg">
<path d="M9.87893 4.86774C9.81796 4.70984 9.7246 4.56645 9.60485 4.44683C9.48509 4.3272 9.34161 4.23399 9.18364 4.17318C8.96613 4.09262 8.73639 4.05004 8.50446 4.0473C8.11876 4.02974 8.00312 4.02534 7.02606 4.02534C6.049 4.02534 5.93336 4.02974 5.54766 4.0473C5.31548 4.04996 5.08548 4.09254 4.86774 4.17318C4.70984 4.23415 4.56646 4.32752 4.44683 4.44727C4.3272 4.56702 4.23399 4.7105 4.17319 4.86847C4.09263 5.08598 4.05005 5.31572 4.0473 5.54766C4.02974 5.93336 4.02535 6.049 4.02535 7.02606C4.02535 8.00312 4.02974 8.11875 4.0473 8.50446C4.04996 8.73664 4.09254 8.96663 4.17319 9.18437C4.23416 9.34228 4.32752 9.48566 4.44727 9.60528C4.56703 9.72491 4.71051 9.81813 4.86847 9.87893C5.08599 9.95949 5.31572 10.0021 5.54766 10.0048C5.93336 10.0224 6.049 10.026 7.02606 10.026C8.00312 10.026 8.11876 10.0224 8.50446 10.0041C8.7366 10.0017 8.96659 9.95932 9.18438 9.87893C9.34228 9.81796 9.48566 9.72459 9.60529 9.60484C9.72491 9.48509 9.81813 9.34161 9.87893 9.18364C9.95949 8.96613 10.0021 8.73639 10.0048 8.50446C10.0224 8.11875 10.026 8.00312 10.026 7.02606C10.026 6.049 10.0224 5.93336 10.0041 5.54766C10.0017 5.31552 9.95933 5.08553 9.87893 4.86774ZM7.02606 8.90553C6.65434 8.90553 6.29096 8.7953 5.98188 8.58878C5.6728 8.38226 5.43191 8.08873 5.28966 7.7453C5.1474 7.40187 5.11018 7.02397 5.1827 6.65939C5.25522 6.29481 5.43422 5.95992 5.69707 5.69707C5.95992 5.43422 6.29481 5.25522 6.65939 5.1827C7.02397 5.11018 7.40187 5.1474 7.7453 5.28965C8.08873 5.4319 8.38226 5.6728 8.58878 5.98188C8.7953 6.29096 8.90553 6.65433 8.90553 7.02606C8.90553 7.52452 8.70751 8.00257 8.35505 8.35504C8.00258 8.70751 7.52453 8.90553 7.02606 8.90553ZM8.97945 5.51179C8.8926 5.51179 8.8077 5.48604 8.73548 5.43779C8.66327 5.38954 8.60698 5.32095 8.57375 5.24071C8.54051 5.16047 8.53181 5.07218 8.54876 4.987C8.5657 4.90181 8.60753 4.82357 8.66894 4.76216C8.73035 4.70074 8.8086 4.65892 8.89378 4.64198C8.97896 4.62503 9.06726 4.63373 9.1475 4.66696C9.22774 4.7002 9.29632 4.75648 9.34457 4.8287C9.39282 4.90091 9.41858 4.98582 9.41858 5.07267C9.41858 5.18913 9.37231 5.30082 9.28996 5.38318C9.20761 5.46553 9.09591 5.51179 8.97945 5.51179ZM8.24611 7.02606C8.24611 7.26736 8.17455 7.50324 8.04049 7.70388C7.90643 7.90451 7.71588 8.06089 7.49295 8.15323C7.27002 8.24557 7.02471 8.26973 6.78804 8.22266C6.55137 8.17558 6.33398 8.05938 6.16336 7.88876C5.99273 7.71813 5.87653 7.50074 5.82946 7.26408C5.78238 7.02741 5.80654 6.7821 5.89888 6.55917C5.99123 6.33623 6.1476 6.14569 6.34824 6.01163C6.54887 5.87757 6.78476 5.80601 7.02606 5.80601C7.34964 5.80601 7.65996 5.93455 7.88876 6.16335C8.11756 6.39216 8.24611 6.70248 8.24611 7.02606ZM7.02606 0C5.63644 0 4.27802 0.412071 3.12259 1.1841C1.96716 1.95614 1.06662 3.05346 0.53483 4.3373C0.00304427 5.62114 -0.136095 7.03385 0.135007 8.39677C0.406109 9.75969 1.07528 11.0116 2.05789 11.9942C3.0405 12.9768 4.29242 13.646 5.65534 13.9171C7.01827 14.1882 8.43097 14.0491 9.71482 13.5173C10.9987 12.9855 12.096 12.085 12.868 10.9295C13.64 9.77409 14.0521 8.41568 14.0521 7.02606C14.0521 5.16263 13.3119 3.37553 11.9942 2.05788C10.6766 0.740243 8.88949 0 7.02606 0V0ZM10.6635 8.53446C10.6573 8.83814 10.5997 9.13857 10.493 9.42297C10.399 9.66601 10.2553 9.88673 10.071 10.071C9.88673 10.2553 9.66601 10.399 9.42297 10.493C9.13881 10.5996 8.83863 10.6572 8.5352 10.6635C8.14437 10.6811 8.01995 10.6855 7.02606 10.6855C6.03217 10.6855 5.90775 10.6811 5.51692 10.6635C5.21349 10.6572 4.91331 10.5996 4.62915 10.493C4.38611 10.399 4.16538 10.2553 3.98112 10.071C3.79686 9.88673 3.65313 9.66601 3.55914 9.42297C3.45255 9.1388 3.39489 8.83863 3.38861 8.53519C3.37105 8.14437 3.36665 8.01995 3.36665 7.02606C3.36665 6.03216 3.37105 5.90774 3.38861 5.51692C3.39466 5.21353 3.45207 4.91335 3.55841 4.62915C3.65239 4.3859 3.7962 4.16499 3.9806 3.98059C4.16499 3.7962 4.3859 3.65239 4.62915 3.5584C4.91336 3.45206 5.21353 3.39465 5.51692 3.38861C5.90775 3.37104 6.03217 3.36665 7.02606 3.36665C8.01995 3.36665 8.14437 3.37104 8.5352 3.38861C8.83859 3.39465 9.13876 3.45206 9.42297 3.5584C9.66608 3.65248 9.88685 3.79632 10.0711 3.98071C10.2554 4.1651 10.3991 4.38597 10.493 4.62915C10.5996 4.91331 10.6572 5.21349 10.6635 5.51692C10.6811 5.90774 10.6855 6.03216 10.6855 7.02606C10.6855 8.01995 10.6811 8.14437 10.6635 8.53519V8.53446Z" fill="#747474"/>
</svg>
