<svg width="15" height="15" viewBox="0 0 15 15" fill="none" xmlns="http://www.w3.org/2000/svg">
<path d="M7.02606 0C3.14562 0 0 3.14562 0 7.02606C0 10.9065 3.14562 14.0521 7.02606 14.0521C10.9065 14.0521 14.0521 10.9065 14.0521 7.02606C14.0521 3.14562 10.9065 0 7.02606 0ZM5.30614 9.93821H3.88336V5.35956H5.30614V9.93821ZM4.58597 4.79748C4.13659 4.79748 3.84603 4.47911 3.84603 4.08536C3.84603 3.68356 4.14537 3.3747 4.60426 3.3747C5.06315 3.3747 5.34419 3.68356 5.35298 4.08536C5.35298 4.47911 5.06315 4.79748 4.58597 4.79748ZM10.5025 9.93821H9.07972V7.40078C9.07972 6.81015 8.87333 6.40908 8.35881 6.40908C7.96579 6.40908 7.73232 6.68061 7.62913 6.94189C7.59107 7.03484 7.58155 7.16658 7.58155 7.29759V9.93748H6.15805V6.81967C6.15805 6.24807 6.13975 5.77015 6.12072 5.35883H7.35687L7.42201 5.99484H7.45055C7.63791 5.69623 8.0968 5.25564 8.86454 5.25564C9.80062 5.25564 10.5025 5.88286 10.5025 7.23098V9.93821Z" fill="#747474"/>
</svg>
