<svg width="15" height="15" viewBox="0 0 15 15" fill="none" xmlns="http://www.w3.org/2000/svg">
<path d="M7.02606 0C3.14604 0 0 3.14604 0 7.02606C0 10.9061 3.14604 14.0521 7.02606 14.0521C10.9061 14.0521 14.0521 10.9061 14.0521 7.02606C14.0521 3.14604 10.9061 0 7.02606 0ZM10.4026 5.29621C10.4073 5.36992 10.4073 5.44676 10.4073 5.52204C10.4073 7.82433 8.65397 10.4764 5.4499 10.4764C4.46186 10.4764 3.54596 10.1894 2.77435 9.69533C2.9155 9.71102 3.05038 9.71729 3.19466 9.71729C4.01019 9.71729 4.75984 9.44127 5.35737 8.97391C4.59203 8.95822 3.94902 8.45636 3.72946 7.7663C3.99764 7.80551 4.23916 7.80551 4.51518 7.73494C4.12111 7.65487 3.7669 7.44085 3.51274 7.12923C3.25858 6.8176 3.12014 6.4276 3.12095 6.02547V6.00352C3.35149 6.13369 3.62281 6.21367 3.90668 6.22465C3.66805 6.06561 3.47234 5.85015 3.33692 5.59737C3.20151 5.34459 3.13055 5.06229 3.13036 4.77552C3.13036 4.45088 3.21505 4.15447 3.36718 3.89727C3.80458 4.43573 4.3504 4.87612 4.96916 5.18982C5.58791 5.50352 6.26575 5.68351 6.95862 5.71808C6.71239 4.534 7.59693 3.57576 8.66024 3.57576C9.1621 3.57576 9.61378 3.78592 9.93215 4.12467C10.3258 4.05096 10.7022 3.90354 11.0378 3.70593C10.9076 4.10899 10.6348 4.44931 10.2725 4.66417C10.6238 4.62653 10.9625 4.5293 11.2762 4.39285C11.0394 4.74102 10.743 5.04998 10.4026 5.29621Z" fill="#747474"/>
</svg>
